# File created by Blade
# Date/Time:  Thu Jan 22 16:16:16 2015
#---------------------------------------------------------
:version 1.10
:name HOM
:units
  mass 1.0
  length 1.000000
  angle deg
:documentation
     Acclaim Skeleton File
:root
   axis xyz
   order TX TY TZ RX RY RZ
   position 0.000000 0.000000 0.000000
   orientation 0 0 0
:bonedata
   begin
      id 1
      name RightUpLeg_dum
      direction -1.000000 0.000000 0.000000
      length 3.766986
      axis 0.0 0.0 0.0 xyz
   end
   begin
      id 2
      name LeftUpLeg_dum
      direction 1.000000 0.000000 0.000000
      length 3.766986
      axis 0.0 0.0 0.0 xyz
   end
   begin
      id 3
      name Spine_dum
      direction 0.000000 1.000000 0.000000
      length 7.779697
      axis 0.0 0.0 0.0 xyz
   end
   begin
      id 4
      name RightUpLeg
      direction 0.000000 -1.000000 0.000000
      length 18.017682
      axis 0.0 0.0 0.0 xyz
      dof rx ry rz
   end
   begin
      id 5
      name RightLeg
      direction 0.000000 -1.000000 0.000000
      length 16.881075
      axis 0.0 0.0 0.0 xyz
      dof rx ry rz
   end
   begin
      id 6
      name RightFoot
      direction 0.000000 -0.258819 0.965926
      length 5.770812
      axis 15.0 0.0 0.0 xyz
      dof rx ry rz
   end
   begin
      id 7
      name RightToeBase
      direction 0.000000 0.000000 1.000000
      length 2.952750
      axis 0.0 0.0 0.0 xyz
      dof rx ry rz
   end
   begin
      id 8
      name LeftUpLeg
      direction 0.000000 -1.000000 0.000000
      length 18.017682
      axis 0.0 0.0 0.0 xyz
      dof rx ry rz
   end
   begin
      id 9
      name LeftLeg
      direction 0.000000 -1.000000 0.000000
      length 16.881075
      axis 0.0 0.0 0.0 xyz
      dof rx ry rz
   end
   begin
      id 10
      name LeftFoot
      direction 0.000000 -0.258819 0.965926
      length 5.770812
      axis 15.0 0.0 0.0 xyz
      dof rx ry rz
   end
   begin
      id 11
      name LeftToeBase
      direction 0.000000 0.000000 1.000000
      length 2.952750
      axis 0.0 0.0 0.0 xyz
      dof rx ry rz
   end
   begin
      id 12
      name Spine
      direction 0.000000 1.000000 0.000000
      length 0.000000
      axis 0.0 0.0 0.0 xyz
      dof rx ry rz
   end
   begin
      id 13
      name Spine_dum1
      direction 0.000000 1.000000 0.000000
      length 10.941760
      axis 0.0 0.0 0.0 xyz
   end
   begin
      id 14
      name Spine_dum2
      direction 0.000000 1.000000 0.000000
      length 10.941760
      axis 0.0 0.0 0.0 xyz
   end
   begin
      id 15
      name Spine_dum3
      direction 0.000000 1.000000 0.000000
      length 16.646042
      axis 0.0 0.0 0.0 xyz
   end
   begin
      id 16
      name RightShoulder
      direction -1.000000 0.000000 0.000000
      length 7.708937
      axis 0.0 0.0 90.0 xyz
      dof rx ry rz
   end
   begin
      id 17
      name RightArm
      direction -1.000000 0.000000 0.000000
      length 11.521345
      axis 0.0 0.0 90.0 xyz
      dof rx ry rz
   end
   begin
      id 18
      name RightForeArm
      direction -1.000000 0.000000 0.000000
      length 10.175898
      axis 0.0 0.0 90.0 xyz
      dof ry rz rx
   end
   begin
      id 19
      name RightHand
      direction -1.000000 0.000000 0.000000
      length 0.000000
      axis 0.0 0.0 90.0 xyz
      dof rx ry rz
   end
   begin
      id 20
      name RightHand_dum1
      direction -1.000000 0.000000 0.000000
      length 3.937000
      axis 0.0 0.0 90.0 xyz
   end
   begin
      id 21
      name RightHand_dum2
      direction 0.000000 0.000000 0.000000
      length 0.000000
      axis 0.0 0.0 90.0 xyz
   end
   begin
      id 22
      name RightHandThumb1
      direction 0.000000 0.000000 1.000000
      length 3.937000
      axis 0.0 0.0 90.0 xyz
      dof rx rz ry
   end
   begin
      id 23
      name LeftShoulder
      direction 1.000000 0.000000 0.000000
      length 7.708937
      axis 0.0 0.0 -90.0 xyz
      dof rx ry rz
   end
   begin
      id 24
      name LeftArm
      direction 1.000000 0.000000 0.000000
      length 11.521345
      axis 0.0 0.0 -90.0 xyz
      dof rx ry rz
   end
   begin
      id 25
      name LeftForeArm
      direction 1.000000 0.000000 0.000000
      length 10.175898
      axis 0.0 0.0 -90.0 xyz
      dof ry rz rx
   end
   begin
      id 26
      name LeftHand
      direction 1.000000 0.000000 0.000000
      length 0.000000
      axis 0.0 0.0 -90.0 xyz
      dof rx ry rz
   end
   begin
      id 27
      name LeftHand_dum1
      direction 1.000000 0.000000 0.000000
      length 3.937000
      axis 0.0 0.0 -90.0 xyz
   end
   begin
      id 28
      name LeftHand_dum2
      direction 0.000000 0.000000 0.000000
      length 0.000000
      axis 0.0 0.0 -90.0 xyz
   end
   begin
      id 29
      name LeftHandThumb1
      direction 0.000000 0.000000 1.000000
      length 3.937000
      axis 0.0 0.0 -90.0 xyz
      dof rx rz ry
   end
   begin
      id 30
      name Head
      direction 0.000000 1.000000 0.000000
      length 4.527550
      axis 0.0 0.0 0.0 xyz
      dof rx ry rz
   end
:hierarchy
   begin
      root RightUpLeg_dum LeftUpLeg_dum Spine_dum
      RightUpLeg_dum RightUpLeg
      LeftUpLeg_dum LeftUpLeg
      Spine_dum Spine
      RightUpLeg RightLeg
      RightLeg RightFoot
      RightFoot RightToeBase
      LeftUpLeg LeftLeg
      LeftLeg LeftFoot
      LeftFoot LeftToeBase
      Spine Spine_dum1 Spine_dum2 Spine_dum3
      Spine_dum1 RightShoulder
      Spine_dum2 LeftShoulder
      Spine_dum3 Head
      RightShoulder RightArm
      RightArm RightForeArm
      RightForeArm RightHand
      RightHand RightHand_dum1 RightHand_dum2
      RightHand_dum2 RightHandThumb1
      LeftShoulder LeftArm
      LeftArm LeftForeArm
      LeftForeArm LeftHand
      LeftHand LeftHand_dum1 LeftHand_dum2
      LeftHand_dum2 LeftHandThumb1
   end

# File created by Blade
# Date/Time:  Thu Jan 22 16:16:06 2015
# Frame Rate: 120.000 fps
#------------------------------------------------------
:FULLY-SPECIFIED
:DEGREES
86
root -0.247170 37.317286 -2.349898 -4.097172 -0.031074 3.173386
RightUpLeg 11.313140 -6.044958 -6.179078
RightLeg -5.498319 -0.000000 0.000000
RightFoot -14.170644 -20.044405 22.615906
RightToeBase 15.311932 -0.000000 -0.000000
LeftUpLeg 1.535945 -4.672249 8.402601
LeftLeg 9.282914 -0.000000 -0.000000
LeftFoot -11.782461 9.336401 -21.498195
LeftToeBase 0.615417 -0.000000 -0.000000
Spine 12.996938 -5.146294 0.956997
RightShoulder -3.796724 -5.511718 -27.733190
RightArm 6.562048 32.548490 34.308500
RightForeArm 4.063756 -0.000000 19.309074
RightHand 1.363398 -0.000000 1.459871
RightHandThumb1 -24.326973 -0.000000 -32.862282
LeftShoulder -22.422740 28.693116 14.064796
LeftArm 52.237411 -50.530258 -63.709676
LeftForeArm 43.168772 -0.000000 5.006758
LeftHand -21.025235 -0.000000 -3.216486
LeftHandThumb1 -26.253704 0.000000 33.147579
Head -3.820165 13.060820 -1.920799
87
root -0.247800 37.310344 -2.338025 -4.120832 -0.170559 3.028933
RightUpLeg 11.291517 -6.130075 -6.050133
RightLeg -5.425812 -0.000000 0.000000
RightFoot -14.130663 -19.888999 22.535550
RightToeBase 15.302403 -0.000000 -0.000000
LeftUpLeg 1.693838 -3.768418 9.016632
LeftLeg 8.737117 -0.000000 -0.000000
LeftFoot -11.533835 10.438641 -21.033621
LeftToeBase 0.731676 -0.000000 -0.000000
Spine 13.026118 -5.051762 0.957377
RightShoulder -3.694628 -5.470166 -27.631155
RightArm 6.608582 32.385804 34.540215
RightForeArm 4.013790 -0.000000 19.427429
RightHand 1.475641 -0.000000 1.644901
RightHandThumb1 -24.326973 -0.000000 -32.862282
LeftShoulder -22.462651 28.708127 14.112517
LeftArm 52.198307 -50.597998 -63.652276
LeftForeArm 43.199804 0.000000 5.084029
LeftHand -21.079683 0.000000 -3.146151
LeftHandThumb1 -26.253704 0.000000 33.147579
Head -3.686334 13.075496 -1.702601
88
root -0.242397 37.302111 -2.325490 -4.143020 -0.291781 2.883735
RightUpLeg 11.270510 -6.256317 -5.936770
RightLeg -5.345920 -0.000000 0.000000
RightFoot -14.096840 -19.676478 22.491586
RightToeBase 15.332131 -0.000000 -0.000000
LeftUpLeg 1.850011 -2.911828 9.629426
LeftLeg 8.152758 -0.000000 -0.000000
LeftFoot -10.948719 11.462936 -20.531499
LeftToeBase 0.252829 -0.000000 -0.000000
Spine 13.057517 -4.975766 0.968523
RightShoulder -3.628932 -5.485271 -27.528389
RightArm 6.713392 32.229040 34.790167
RightForeArm 3.962405 0.000000 19.591043
RightHand 1.411627 -0.000000 1.690161
RightHandThumb1 -24.326973 -0.000000 -32.862282
LeftShoulder -22.470022 28.649424 14.192943
LeftArm 51.942733 -50.588072 -63.392321
LeftForeArm 43.146891 0.000000 5.135880
LeftHand -20.893009 0.000000 -3.302612
LeftHandThumb1 -26.253704 0.000000 33.147579
Head -3.583699 13.056159 -1.529682
89
root -0.236231 37.292948 -2.314648 -4.125231 -0.401185 2.727655
RightUpLeg 11.211035 -6.351440 -5.804777
RightLeg -5.274123 -0.000000 0.000000
RightFoot -14.140330 -19.516131 22.430037
RightToeBase 15.686712 -0.000000 -0.000000
LeftUpLeg 1.978600 -2.094830 10.252506
LeftLeg 7.538672 -0.000000 -0.000000
LeftFoot -10.158990 12.414208 -20.034784
LeftToeBase 0.061460 -0.000000 -0.000000
Spine 13.034799 -4.917747 0.985380
RightShoulder -3.604662 -5.595162 -27.398055
RightArm 6.971654 32.012513 35.045015
RightForeArm 4.002427 -0.000000 19.598708
RightHand 1.549768 -0.000000 1.663500
RightHandThumb1 -24.326973 -0.000000 -32.862282
LeftShoulder -22.526556 28.731044 14.163371
LeftArm 51.984776 -50.685043 -63.346767
LeftForeArm 43.191507 0.000000 5.199346
LeftHand -20.970615 -0.000000 -3.030229
LeftHandThumb1 -26.253704 0.000000 33.147579
Head -3.468877 13.109035 -1.357090
90
root -0.223980 37.281437 -2.301534 -4.128269 -0.472728 2.587762
RightUpLeg 11.186860 -6.495478 -5.715874
RightLeg -5.191611 -0.000000 0.000000
RightFoot -14.080047 -19.335649 22.320900
RightToeBase 15.627788 -0.000000 -0.000000
LeftUpLeg 2.113963 -1.299559 10.841800
LeftLeg 6.937825 -0.000000 -0.000000
LeftFoot -9.329725 13.144031 -19.855357
LeftToeBase -0.192472 -0.000000 0.000000
Spine 13.049687 -4.857262 0.984952
RightShoulder -3.595471 -5.656477 -27.276548
RightArm 7.124157 31.865067 35.270171
RightForeArm 4.020526 -0.000000 19.684622
RightHand 1.450866 -0.000000 1.881636
RightHandThumb1 -24.326973 -0.000000 -32.862282
LeftShoulder -22.525149 28.703893 14.237987
LeftArm 51.902177 -50.726809 -63.254509
LeftForeArm 43.161735 -0.000000 5.264090
LeftHand -21.003299 -0.000000 -3.108524
LeftHandThumb1 -26.253704 0.000000 33.147579
Head -3.421402 13.050668 -1.226794
91
root -0.208615 37.269293 -2.288060 -4.133415 -0.482091 2.435429
RightUpLeg 11.185891 -6.692167 -5.629864
RightLeg -5.130935 -0.000000 0.000000
RightFoot -14.140586 -19.068279 22.443553
RightToeBase 15.836515 -0.000000 -0.000000
LeftUpLeg 2.200233 -0.610739 11.438963
LeftLeg 6.430682 -0.000000 -0.000000
LeftFoot -8.648156 13.686033 -19.731341
LeftToeBase -0.331216 -0.000000 0.000000
Spine 13.064730 -4.877146 0.983621
RightShoulder -3.527010 -5.685038 -27.161596
RightArm 7.192691 31.705774 35.470328
RightForeArm 3.911277 -0.000000 19.729558
RightHand 1.534532 -0.000000 1.758109
RightHandThumb1 -24.326973 -0.000000 -32.862282
LeftShoulder -22.545662 28.745988 14.271015
LeftArm 51.904331 -50.806283 -63.230108
LeftForeArm 43.196461 0.000000 5.338576
LeftHand -21.023768 0.000000 -3.224522
LeftHandThumb1 -26.253704 0.000000 33.147579
Head -3.369560 13.061222 -1.098282
92
root -0.188038 37.254813 -2.272678 -4.139960 -0.457049 2.282688
RightUpLeg 11.211512 -6.871217 -5.551231
RightLeg -5.080904 -0.000000 0.000000
RightFoot -14.142829 -18.894251 22.521636
RightToeBase 15.559657 -0.000000 -0.000000
LeftUpLeg 2.279029 0.072368 12.017096
LeftLeg 5.958172 -0.000000 -0.000000
LeftFoot -8.313263 13.915239 -19.740184
LeftToeBase -0.602222 -0.000000 0.000000
Spine 13.083324 -4.960792 0.988431
RightShoulder -3.508336 -5.784108 -27.074370
RightArm 7.405052 31.499122 35.716624
RightForeArm 4.036122 -0.000000 19.791311
RightHand 1.407751 0.000000 1.746870
RightHandThumb1 -24.326973 -0.000000 -32.862282
LeftShoulder -22.544638 28.699143 14.313254
LeftArm 51.705792 -50.878108 -63.064145
LeftForeArm 43.188724 -0.000000 5.454679
LeftHand -21.021317 0.000000 -3.168961
LeftHandThumb1 -26.253704 0.000000 33.147579
Head -3.343904 13.060710 -1.025551
93
root -0.162642 37.240558 -2.256109 -4.151868 -0.395779 2.122122
RightUpLeg 11.264967 -7.039319 -5.464582
RightLeg -5.074642 -0.000000 0.000000
RightFoot -14.231600 -18.700171 22.717503
RightToeBase 15.809230 -0.000000 -0.000000
LeftUpLeg 2.337240 0.627803 12.584886
LeftLeg 5.571846 -0.000000 -0.000000
LeftFoot -8.404858 13.874478 -20.078208
LeftToeBase -0.638637 -0.000000 0.000000
Spine 13.109066 -5.046286 1.009346
RightShoulder -3.480713 -5.909977 -26.951305
RightArm 7.604236 31.350791 35.904346
RightForeArm 3.985180 0.000000 19.646268
RightHand 1.799481 -0.000000 1.652408
RightHandThumb1 -24.326973 -0.000000 -32.862282
LeftShoulder -22.568546 28.749841 14.303929
LeftArm 51.783738 -50.963437 -63.120791
LeftForeArm 43.299076 -0.000000 5.553661
LeftHand -21.191998 -0.000000 -3.066033
LeftHandThumb1 -26.253704 0.000000 33.147579
Head -3.337757 13.035362 -0.983821
94
root -0.130552 37.224118 -2.236912 -4.174746 -0.307686 1.962611
RightUpLeg 11.349767 -7.182768 -5.387295
RightLeg -5.085196 -0.000000 0.000000
RightFoot -14.279425 -18.595684 22.795964
RightToeBase 15.799975 -0.000000 -0.000000
LeftUpLeg 2.380910 1.030637 13.125006
LeftLeg 5.242205 -0.000000 -0.000000
LeftFoot -8.599396 13.763336 -20.354341
LeftToeBase -0.662283 -0.000000 0.000000
Spine 13.150453 -5.164491 1.034905
RightShoulder -3.423645 -6.018529 -26.902831
RightArm 7.665605 31.175569 36.124498
RightForeArm 4.041321 -0.000000 19.757074
RightHand 1.661849 -0.000000 1.412141
RightHandThumb1 -24.326973 -0.000000 -32.862282
LeftShoulder -22.641944 28.850244 14.234129
LeftArm 51.923001 -51.032080 -63.153310
LeftForeArm 43.285628 -0.000000 5.602586
LeftHand -21.108352 -0.000000 -3.095732
LeftHandThumb1 -26.253704 0.000000 33.147579
Head -3.361635 13.015650 -0.988895
95
root -0.105317 37.205842 -2.222381 -4.150471 -0.185813 1.743991
RightUpLeg 11.372938 -7.390072 -5.234374
RightLeg -5.070707 -0.000000 0.000000
RightFoot -14.338743 -18.490271 22.917819
RightToeBase 15.858212 -0.000000 -0.000000
LeftUpLeg 2.294889 1.462125 13.731426
LeftLeg 5.051602 -0.000000 -0.000000
LeftFoot -8.666172 13.524037 -20.524832
LeftToeBase -0.806128 -0.000000 0.000000
Spine 13.140049 -5.305106 1.121328
RightShoulder -3.408340 -6.190302 -26.849043
RightArm 7.830842 31.040288 36.393773
RightForeArm 4.052520 0.000000 19.723986
RightHand 1.799450 -0.000000 1.225368
RightHandThumb1 -24.326973 -0.000000 -32.862282
LeftShoulder -22.603501 28.823822 14.247547
LeftArm 51.754926 -51.054063 -62.933785
LeftForeArm 43.231438 -0.000000 5.633856
LeftHand -21.023208 -0.000000 -3.202501
LeftHandThumb1 -26.253704 0.000000 33.147579
Head -3.379671 12.987239 -1.046137
96
root -0.070721 37.185992 -2.200991 -4.174877 -0.075093 1.528071
RightUpLeg 11.456087 -7.565521 -5.094706
RightLeg -5.068000 -0.000000 0.000000
RightFoot -14.389930 -18.455364 22.949310
RightToeBase 15.974336 -0.000000 -0.000000
LeftUpLeg 2.295460 1.686935 14.292124
LeftLeg 4.828865 -0.000000 -0.000000
LeftFoot -8.599093 13.380192 -20.676328
LeftToeBase -0.762741 -0.000000 0.000000
Spine 13.191944 -5.421513 1.212553
RightShoulder -3.360085 -6.270953 -26.815185
RightArm 7.805226 30.782961 36.563363
RightForeArm 4.225133 0.000000 19.766736
RightHand 1.918371 -0.000000 0.959455
RightHandThumb1 -24.326973 -0.000000 -32.862282
LeftShoulder -22.643346 28.877174 14.203587
LeftArm 51.844619 -51.049855 -62.918708
LeftForeArm 43.247059 0.000000 5.650369
LeftHand -21.107048 0.000000 -3.057111
LeftHandThumb1 -26.253704 0.000000 33.147579
Head -3.444096 12.956590 -1.054694
